<?xml version="1.0" standalone="no"?>
<!DOCTYPE svg PUBLIC "-//W3C//DTD SVG 20010904//EN"
 "http://www.w3.org/TR/2001/REC-SVG-20010904/DTD/svg10.dtd">
<svg version="1.0" xmlns="http://www.w3.org/2000/svg"
 width="81.000000pt" height="81.000000pt" viewBox="0 0 81.000000 81.000000"
 preserveAspectRatio="xMidYMid meet">
<metadata>
Created by potrace 1.14, written by Peter Selinger 2001-2017
</metadata>
<g transform="translate(0.000000,81.000000) scale(0.100000,-0.100000)"
fill="#000000" stroke="none">
<path d="M307 800 c-156 -40 -295 -197 -300 -341 l-2 -53 44 -1 43 0 17 65
c25 99 79 167 171 213 67 33 186 31 254 -3 102 -52 168 -152 175 -266 1 -6 21
-10 49 -9 47 1 47 1 48 35 3 85 -71 224 -149 281 -77 58 -141 81 -230 85 -45
2 -99 -1 -120 -6z"/>
<path d="M705 723 c1 -36 2 -38 37 -41 37 -3 50 9 43 44 -2 11 -4 22 -4 27 -1
4 -18 7 -39 7 -38 0 -38 -1 -37 -37z"/>
<path d="M307 643 c-3 -5 -5 -27 -5 -50 l-1 -43 50 0 49 0 0 50 0 50 -44 0
c-25 0 -47 -3 -49 -7z"/>
<path d="M164 483 l1 -67 68 -2 c74 -2 69 -8 69 76 0 63 3 60 -70 60 l-69 0 1
-67z"/>
<path d="M660 388 c-71 -8 -165 -50 -219 -98 l-34 -30 -21 23 c-59 63 -161 97
-293 97 -80 0 -94 -12 -20 -17 99 -7 181 -39 257 -103 53 -43 107 -64 145 -54
15 4 56 33 91 64 52 47 70 58 99 58 l34 0 -42 -35 c-23 -20 -56 -57 -74 -83
-66 -98 -165 -151 -280 -151 -35 0 -73 2 -86 6 -18 5 -17 3 5 -10 52 -30 149
-48 222 -42 170 15 336 166 360 329 5 35 4 38 -22 43 -49 11 -56 11 -122 3z"/>
<path d="M7 328 c17 -86 81 -185 136 -212 44 -20 113 -27 143 -14 33 15 45 50
29 82 -28 53 -127 117 -241 156 -74 26 -75 26 -67 -12z"/>
</g>
</svg>
